<svg xmlns="http://www.w3.org/2000/svg" width="333" height="33" viewBox="0 0 333 33">
    <g fill="none" fill-rule="evenodd">
        <g>
            <path fill="#131127" d="M126.876 16.377h2.02v-3.639h2.676v3.64h2.417v1.995h-2.417v6.48c0 .282.012.524.035.728.024.203.078.375.165.516.085.141.214.247.386.317.173.07.407.106.705.106.189 0 .375-.004.563-.012.189-.008.377-.035.563-.082v2.066c-.296.031-.586.062-.868.094-.281.031-.571.047-.868.047-.705 0-1.273-.067-1.703-.2-.43-.132-.767-.328-1.009-.587-.243-.258-.407-.582-.493-.974-.087-.391-.137-.837-.153-1.338v-7.161h-2.019v-1.996zm-6.903 10.354c.595 0 1.112-.125 1.55-.375.439-.25.798-.58 1.08-.987.282-.406.49-.864.622-1.373.133-.509.2-1.03.2-1.561 0-.517-.067-1.033-.2-1.55-.133-.516-.34-.974-.621-1.373-.283-.4-.642-.724-1.081-.975-.438-.25-.955-.375-1.55-.375-.595 0-1.11.125-1.55.375-.437.25-.797.575-1.079.975-.282.399-.49.857-.622 1.373-.133.517-.2 1.033-.2 1.55 0 .532.067 1.052.2 1.561.133.509.34.967.622 1.373.282.408.642.736 1.08.987.439.25.954.375 1.55.375zm0 2.113c-.97 0-1.835-.16-2.594-.481-.76-.32-1.4-.763-1.925-1.327-.525-.563-.924-1.236-1.197-2.019-.274-.782-.411-1.643-.411-2.582 0-.924.137-1.777.41-2.56.274-.782.673-1.455 1.198-2.019.524-.563 1.166-1.005 1.925-1.326.76-.32 1.624-.481 2.594-.481.971 0 1.836.16 2.595.48.759.322 1.4.764 1.925 1.327.525.564.924 1.237 1.198 2.02.273.782.41 1.635.41 2.559 0 .939-.137 1.8-.41 2.582-.274.783-.673 1.456-1.198 2.02-.524.563-1.166 1.005-1.925 1.326-.759.32-1.624.481-2.595.481zm-10.87-.328h2.677V11.752h-2.677v16.764zm-5.068 0h2.676V16.377h-2.676v12.139zm0-14.228h2.676v-2.536h-2.676v2.536zm-4.72 8.17c0-.548-.07-1.08-.21-1.596-.142-.517-.353-.975-.635-1.374-.281-.4-.634-.72-1.056-.963-.423-.242-.908-.363-1.456-.363-1.127 0-1.976.391-2.547 1.173-.572.783-.857 1.824-.857 3.123 0 .61.074 1.178.223 1.702.148.525.371.975.669 1.35.297.376.653.673 1.068.892.415.22.896.33 1.444.33.61 0 1.127-.126 1.55-.376.422-.25.77-.576 1.045-.975.273-.399.47-.853.586-1.362.118-.508.177-1.029.177-1.56zm-9.344-6.08h2.536v1.643h.047c.375-.705.9-1.21 1.573-1.515.673-.305 1.4-.457 2.183-.457.955 0 1.788.168 2.5.504.713.337 1.304.799 1.773 1.386.47.586.822 1.271 1.057 2.054.235.783.352 1.62.352 2.512 0 .814-.106 1.605-.317 2.371-.211.767-.532 1.444-.962 2.031-.431.587-.975 1.057-1.632 1.409-.658.352-1.432.528-2.325.528-.391 0-.782-.035-1.173-.105-.392-.07-.767-.185-1.127-.34-.36-.157-.693-.357-.998-.6-.306-.242-.56-.528-.763-.856h-.047V33H89.97V16.377zm-8.992 0h2.02v-3.64h2.676v3.64h2.418v1.995h-2.418v6.48c0 .282.012.524.035.728.023.203.078.375.164.516.086.141.215.247.388.317.172.07.407.106.704.106.188 0 .376-.004.564-.012.187-.008.375-.035.563-.082v2.066c-.298.031-.587.062-.869.094-.281.031-.571.047-.868.047-.705 0-1.272-.067-1.703-.2-.43-.132-.767-.328-1.01-.587-.242-.258-.406-.582-.492-.974-.086-.391-.137-.837-.153-1.338v-7.161H80.98v-1.996zm-8.828 8.24c.078.783.376 1.33.892 1.644.517.313 1.135.47 1.855.47.25 0 .536-.02.857-.06.32-.038.622-.113.904-.223.282-.109.513-.27.693-.48.18-.212.262-.49.246-.834-.016-.344-.14-.626-.375-.846-.235-.219-.537-.395-.904-.528-.368-.133-.787-.246-1.256-.34-.47-.094-.948-.196-1.433-.306-.5-.109-.982-.242-1.444-.399-.461-.156-.876-.367-1.244-.634-.368-.266-.661-.606-.88-1.02-.22-.415-.33-.928-.33-1.539 0-.657.161-1.209.482-1.655.32-.446.728-.806 1.221-1.08.493-.274 1.04-.465 1.644-.575.602-.11 1.177-.164 1.725-.164.626 0 1.225.066 1.796.2.572.132 1.088.348 1.55.645.461.297.845.685 1.15 1.162.306.477.497 1.053.576 1.726h-2.794c-.126-.642-.42-1.072-.88-1.292-.463-.219-.99-.328-1.586-.328-.187 0-.41.015-.669.046-.258.032-.5.09-.727.177-.228.086-.42.21-.576.375-.156.165-.235.38-.235.646 0 .329.114.595.341.798.227.204.524.372.892.505s.787.246 1.256.34c.47.094.955.196 1.456.306.485.11.963.242 1.432.399.47.156.888.368 1.256.634s.665.602.892 1.01c.227.406.34.907.34 1.502 0 .72-.164 1.33-.492 1.831-.329.501-.756.908-1.28 1.221-.524.313-1.107.54-1.749.681-.642.14-1.276.211-1.902.211-.767 0-1.475-.086-2.124-.258-.65-.172-1.214-.434-1.69-.787-.479-.352-.854-.79-1.128-1.314-.274-.525-.419-1.147-.434-1.867h2.676zm-4.554 3.898h-2.63v-1.69h-.047c-.329.61-.818 1.099-1.467 1.466-.65.368-1.311.552-1.984.552-1.597 0-2.751-.395-3.463-1.185-.713-.79-1.069-1.984-1.069-3.58v-7.702h2.677v7.443c0 1.064.203 1.816.61 2.254.407.438.978.657 1.714.657.564 0 1.033-.086 1.409-.258.376-.172.68-.403.916-.693.234-.29.402-.637.504-1.044.102-.407.153-.846.153-1.315v-7.044h2.677v12.139zM48.2 16.377h2.512v2.348h.047c.078-.329.231-.65.458-.962.227-.313.5-.6.822-.857.32-.259.677-.466 1.068-.623.391-.156.79-.234 1.198-.234.312 0 .528.008.645.023.118.016.239.032.364.047v2.583c-.188-.032-.38-.06-.575-.083-.196-.023-.388-.035-.575-.035-.455 0-.88.09-1.28.27-.399.18-.748.446-1.045.798-.297.353-.532.787-.704 1.303-.172.517-.258 1.112-.258 1.785v5.776H48.2V16.377zm-12.983-4.625h13.57v2.536h-5.33v14.228h-2.934V14.288h-5.306v-2.536z" transform="translate(199)"/>
            <path fill="#11AA73" d="M32.092 11.752L19.833 11.75 16.046 0.092 12.259 11.749 0 11.747 9.918 18.955 6.131 30.614 16.047 23.409 25.961 30.614 22.174 18.957 32.092 11.752" transform="translate(199)"/>
            <path fill="#114728" d="M23.033 21.6L22.174 18.957 16.047 23.409 23.033 21.6" transform="translate(199)"/>
        </g>
        <g transform="translate(0 2)">
            <rect width="30" height="30" fill="#11AA73" rx="1"/>
            <g>
                <path fill="#FFF" d="M25.117 9.198L15.522 9.196 12.558 0.072 9.595 9.195 0 9.193 7.762 14.835 4.798 23.96 12.559 18.321 20.319 23.96 17.355 14.837 25.117 9.198" transform="translate(2 3)"/>
                <path fill="#114728" d="M18.027 16.905L17.355 14.837 12.559 18.321 18.027 16.905" transform="translate(2 3)"/>
            </g>
            <g transform="translate(38)">
                <rect width="30" height="30" fill="#11AA73" rx="1"/>
                <g>
                    <path fill="#FFF" d="M25.117 9.198L15.522 9.196 12.558 0.072 9.595 9.195 0 9.193 7.762 14.835 4.798 23.96 12.559 18.321 20.319 23.96 17.355 14.837 25.117 9.198" transform="translate(2 3)"/>
                    <path fill="#114728" d="M18.027 16.905L17.355 14.837 12.559 18.321 18.027 16.905" transform="translate(2 3)"/>
                </g>
            </g>
            <g transform="translate(76)">
                <rect width="30" height="30" fill="#11AA73" rx="1"/>
                <g>
                    <path fill="#FFF" d="M25.117 9.198L15.522 9.196 12.558 0.072 9.595 9.195 0 9.193 7.762 14.835 4.798 23.96 12.559 18.321 20.319 23.96 17.355 14.837 25.117 9.198" transform="translate(2 3)"/>
                    <path fill="#114728" d="M18.027 16.905L17.355 14.837 12.559 18.321 18.027 16.905" transform="translate(2 3)"/>
                </g>
            </g>
            <g transform="translate(114)">
                <rect width="30" height="30" fill="#11AA73" rx="1"/>
                <g>
                    <path fill="#FFF" d="M25.117 9.198L15.522 9.196 12.558 0.072 9.595 9.195 0 9.193 7.762 14.835 4.798 23.96 12.559 18.321 20.319 23.96 17.355 14.837 25.117 9.198" transform="translate(2 3)"/>
                    <path fill="#114728" d="M18.027 16.905L17.355 14.837 12.559 18.321 18.027 16.905" transform="translate(2 3)"/>
                </g>
            </g>
            <g transform="translate(152)">
                <rect width="30" height="30" fill="#11AA73" rx="1"/>
                <g>
                    <path fill="#FFF" d="M25.117 9.198L15.522 9.196 12.558 0.072 9.595 9.195 0 9.193 7.762 14.835 4.798 23.96 12.559 18.321 20.319 23.96 17.355 14.837 25.117 9.198" transform="translate(2 3)"/>
                    <path fill="#114728" d="M18.027 16.905L17.355 14.837 12.559 18.321 18.027 16.905" transform="translate(2 3)"/>
                </g>
            </g>
        </g>
    </g>
</svg>